<svg width="30" height="30" viewBox="0 0 30 30" fill="none" xmlns="http://www.w3.org/2000/svg">
<g clip-path="url(#clip0_165_125)">
<path d="M30 15.0918C30 22.578 24.5075 28.7843 17.3375 29.9105V19.4568H20.8237L21.4875 15.1318H17.3375V12.3255C17.3375 11.1418 17.9175 9.9893 19.775 9.9893H21.6613V6.3068C21.6613 6.3068 19.9487 6.0143 18.3125 6.0143C14.895 6.0143 12.6625 8.08555 12.6625 11.8343V15.1305H8.86375V19.4555H12.6625V29.9093C5.49375 28.7818 0 22.5768 0 15.0918C0 6.80805 6.71625 0.0917969 15 0.0917969C23.2838 0.0917969 30 6.8068 30 15.0918Z" fill="white"/>
</g>
<defs>
<clipPath id="clip0_165_125">
<rect width="30" height="30" fill="white"/>
</clipPath>
</defs>
</svg>
