<svg width="34" height="34" viewBox="0 0 34 34" fill="none" xmlns="http://www.w3.org/2000/svg">
<path fill-rule="evenodd" clip-rule="evenodd" d="M16.9962 3.13086C8.83943 3.13086 2.2251 9.7438 2.2251 17.9019C2.2251 24.4282 6.45751 29.965 12.3265 31.9182C13.0646 32.0549 13.3358 31.5976 13.3358 31.2076C13.3358 30.8555 13.3222 29.6917 13.3158 28.4574C9.20642 29.3511 8.3393 26.7146 8.3393 26.7146C7.66731 25.0074 6.69929 24.5533 6.69929 24.5533C5.35897 23.6365 6.80032 23.6554 6.80032 23.6554C8.28343 23.7596 9.06457 25.1779 9.06457 25.1779C10.382 27.4359 12.52 26.783 13.3631 26.4056C13.4957 25.451 13.8783 24.7992 14.3009 24.4303C11.02 24.0569 7.5709 22.7903 7.5709 17.1304C7.5709 15.5179 8.14799 14.2001 9.09298 13.1656C8.93963 12.7935 8.43397 11.2912 9.2361 9.25648C9.2361 9.25648 10.4765 8.85972 13.299 10.7708C14.4773 10.4435 15.741 10.2793 16.9963 10.2736C18.2515 10.2793 19.5161 10.4435 20.6965 10.7708C23.516 8.85972 24.7546 9.25648 24.7546 9.25648C25.5586 11.2912 25.0529 12.7935 24.8996 13.1656C25.8467 14.2001 26.4197 15.5178 26.4197 17.1304C26.4197 22.8039 22.9642 24.0529 19.6749 24.4186C20.2047 24.877 20.6767 25.7759 20.6767 27.154C20.6767 29.1304 20.6598 30.721 20.6598 31.2076C20.6598 31.6008 20.9256 32.0614 21.6742 31.9164C27.5402 29.961 31.7673 24.4261 31.7673 17.9019C31.7673 9.7438 25.1539 3.13086 16.9962 3.13086Z" fill="white"/>
<path d="M7.81969 24.3382C7.78718 24.4118 7.67159 24.4338 7.56646 24.3834C7.45923 24.3352 7.39928 24.2351 7.43388 24.1615C7.46567 24.0859 7.58123 24.065 7.68828 24.1154C7.79557 24.1637 7.85675 24.2647 7.81969 24.3382Z" fill="white"/>
<path d="M8.41801 25.0053C8.34761 25.0704 8.20969 25.0401 8.11625 24.937C8.01951 24.834 8.00164 24.6961 8.07313 24.63C8.14576 24.5648 8.27932 24.5953 8.37599 24.6983C8.47279 24.8025 8.4916 24.9391 8.41801 25.0053Z" fill="white"/>
<path d="M9.0006 25.8569C8.91004 25.9199 8.76195 25.8608 8.67043 25.7295C8.57987 25.5981 8.5799 25.4405 8.67255 25.3773C8.76407 25.3143 8.91006 25.3711 9.00272 25.5014C9.09304 25.635 9.09302 25.7926 9.0006 25.8569Z" fill="white"/>
<path d="M9.79832 26.679C9.7173 26.7683 9.5448 26.7441 9.41874 26.6223C9.2895 26.5033 9.25366 26.3343 9.33462 26.2449C9.41684 26.1556 9.59026 26.1806 9.71728 26.3015C9.84556 26.4204 9.8845 26.5905 9.79832 26.679Z" fill="white"/>
<path d="M10.8991 27.1567C10.8633 27.2722 10.6973 27.3248 10.53 27.2756C10.3628 27.2249 10.2537 27.0895 10.2873 26.9727C10.3219 26.8562 10.4889 26.8015 10.6573 26.854C10.8243 26.9044 10.9337 27.0389 10.8991 27.1567Z" fill="white"/>
<path d="M12.1081 27.2448C12.1121 27.3666 11.9702 27.4677 11.7947 27.4699C11.6181 27.4739 11.475 27.3753 11.4731 27.2554C11.4731 27.1323 11.6118 27.0324 11.7885 27.0294C11.964 27.026 12.1081 27.1239 12.1081 27.2448Z" fill="white"/>
<path d="M13.2329 27.0537C13.2539 27.1724 13.1318 27.2945 12.9574 27.327C12.7859 27.3585 12.6273 27.2849 12.6054 27.1671C12.5842 27.0453 12.7083 26.9233 12.8796 26.8917C13.0543 26.8614 13.2107 26.9328 13.2329 27.0537Z" fill="white"/>
</svg>
