<svg width="18" height="18" viewBox="0 0 27 26" fill="none" xmlns="http://www.w3.org/2000/svg">
<path d="M13 0.000677619C9.85526 0.00163785 6.8175 1.14246 4.44956 3.21177C2.08162 5.28108 0.544038 8.13857 0.121707 11.2548C-0.300624 14.371 0.420933 17.5347 2.15268 20.1596C3.88443 22.7845 6.50896 24.6927 9.53997 25.5307C9.67001 25.5796 9.80883 25.6009 9.94756 25.5932C10.0863 25.5855 10.2219 25.549 10.3457 25.4859C10.4695 25.4229 10.5789 25.3348 10.6668 25.2272C10.7546 25.1195 10.8191 24.9948 10.8561 24.8608C10.893 24.7269 10.9017 24.5867 10.8815 24.4493C10.8613 24.3118 10.8126 24.18 10.7387 24.0624C10.6647 23.9448 10.567 23.8439 10.4519 23.7661C10.3368 23.6883 10.2067 23.6354 10.07 23.6107C7.55313 22.9215 5.36327 21.36 3.89155 19.2051C2.41982 17.0503 1.76209 14.4424 2.03584 11.8473C2.30959 9.2522 3.49699 6.83895 5.38594 5.03859C7.27489 3.23823 9.74236 2.16804 12.3476 2.01917C14.9528 1.87029 17.5261 2.65245 19.6079 4.22591C21.6896 5.79937 23.1442 8.06166 23.7118 10.6087C24.2794 13.1557 23.923 15.8215 22.7063 18.13C21.4896 20.4385 19.4919 22.2393 17.07 23.2107C17.133 21.8966 17.0323 20.5798 16.77 19.2907C18.1914 18.9754 19.4588 18.1753 20.3547 17.0276C21.2506 15.8798 21.7192 14.4561 21.68 13.0007C21.7521 11.6317 21.3842 10.2755 20.63 9.13068C20.7698 7.99481 20.6325 6.84198 20.23 5.77068C20.1549 5.5473 20.0034 5.35758 19.8022 5.235C19.6009 5.11242 19.3629 5.06485 19.13 5.10068C17.9239 5.2654 16.7713 5.70318 15.76 6.38068C14.8591 6.14115 13.9321 6.01352 13 6.00068C11.9867 6.02737 10.9799 6.17168 9.99997 6.43068C9.02791 5.68707 7.84362 5.27361 6.61997 5.25068C6.40437 5.23795 6.19044 5.29536 6.01018 5.41433C5.82992 5.5333 5.69303 5.70743 5.61997 5.91068C5.25322 6.93147 5.12661 8.02304 5.24997 9.10068C4.53244 10.2728 4.16789 11.6268 4.19997 13.0007C4.23702 14.4488 4.74522 15.8454 5.6475 16.9786C6.54979 18.1119 7.79697 18.9201 9.19997 19.2807C9.13575 19.5411 9.08567 19.8048 9.04997 20.0707C8.04997 20.1307 7.46997 19.5207 6.72997 18.5907C6.29436 17.8587 5.60334 17.3137 4.78997 17.0607C4.53738 17.0156 4.27715 17.0694 4.0631 17.2109C3.84905 17.3523 3.69756 17.5707 3.63997 17.8207C3.58458 18.0709 3.62736 18.3328 3.75948 18.5524C3.8916 18.7719 4.10297 18.9324 4.34997 19.0007C4.50997 19.0007 4.89997 19.5207 5.11997 19.8107C5.51843 20.4593 6.06724 21.0024 6.71998 21.394C7.37271 21.7856 8.11017 22.0143 8.86997 22.0607C9.30947 22.0601 9.74684 21.9995 10.17 21.8807C10.2736 21.85 10.3715 21.8027 10.46 21.7407C10.533 21.683 10.5941 21.6117 10.64 21.5307C10.6718 21.5057 10.6989 21.4752 10.72 21.4407C10.7459 21.3863 10.7661 21.3293 10.78 21.2707C10.8045 21.2055 10.8246 21.1386 10.84 21.0707C10.8366 20.4062 10.9945 19.7508 11.3 19.1607C11.4242 19.0154 11.5042 18.8376 11.5305 18.6482C11.5568 18.4589 11.5283 18.2659 11.4483 18.0923C11.3683 17.9187 11.2403 17.7716 11.0793 17.6685C10.9183 17.5654 10.7311 17.5107 10.54 17.5107C9.38098 17.4453 8.28958 16.9441 7.48466 16.1076C6.67975 15.2712 6.22083 14.1613 6.19997 13.0007C6.15044 11.932 6.45638 10.877 7.06997 10.0007C7.16948 9.88908 7.2427 9.75658 7.28423 9.61294C7.32577 9.46929 7.33456 9.31817 7.30997 9.17068C7.19489 8.55938 7.19489 7.93198 7.30997 7.32068C7.96435 7.45926 8.567 7.7779 9.04997 8.24068C9.18033 8.36578 9.34214 8.45322 9.51822 8.49372C9.6943 8.53422 9.87805 8.52625 10.05 8.47068C11.011 8.19656 12.0014 8.03877 13 8.00068C13.8987 8.02314 14.7902 8.16781 15.65 8.43068C15.8175 8.49276 15.9987 8.50881 16.1745 8.47715C16.3504 8.44549 16.5146 8.36729 16.65 8.25068C17.2326 7.77064 17.9164 7.42875 18.65 7.25068C18.8 7.87851 18.8 8.53284 18.65 9.16068C18.6108 9.34078 18.6198 9.52801 18.676 9.70355C18.7322 9.87908 18.8336 10.0367 18.97 10.1607C19.557 10.9836 19.8107 11.9983 19.68 13.0007C19.7035 13.5884 19.606 14.1748 19.3933 14.7232C19.1807 15.2717 18.8575 15.7705 18.4439 16.1888C18.0304 16.6071 17.5352 16.9358 16.9892 17.1546C16.4431 17.3734 15.858 17.4776 15.27 17.4607C15.0656 17.46 14.866 17.522 14.698 17.6382C14.5299 17.7544 14.4015 17.9193 14.33 18.1107C14.2574 18.3021 14.2453 18.5112 14.2954 18.7097C14.3455 18.9082 14.4553 19.0866 14.61 19.2207C15.2 19.7307 15.11 23.2207 15.08 24.5807C15.0761 24.7359 15.1084 24.89 15.1743 25.0305C15.2403 25.1711 15.3381 25.2944 15.46 25.3907C15.6372 25.5283 15.8556 25.6022 16.08 25.6007C16.163 25.6104 16.2469 25.6104 16.33 25.6007C19.4125 24.8185 22.1014 22.9335 23.8878 20.3025C25.6742 17.6714 26.4342 14.4768 26.024 11.3231C25.6138 8.16946 24.0618 5.27557 21.6617 3.18907C19.2617 1.10257 16.18 -0.031777 13 0.000677619Z" fill="white"/>
</svg>
