<svg width="14" height="14" viewBox="0 0 14 14" fill="none" xmlns="http://www.w3.org/2000/svg">
<g clip-path="url(#clip0_415_64)">
<path d="M7 14C10.866 14 14 10.866 14 7C14 3.13401 10.866 0 7 0C3.13401 0 0 3.13401 0 7C0 10.866 3.13401 14 7 14Z" fill="#0091E2"/>
<path d="M11.3106 6.30957C11.2887 6.2918 11.0905 6.14277 10.6721 6.14277C10.5614 6.14277 10.4507 6.15098 10.3413 6.17148C10.2606 5.61504 9.80125 5.34434 9.78074 5.33203L9.66863 5.26641L9.5948 5.37305C9.50184 5.5166 9.43484 5.67383 9.3952 5.84063C9.32 6.15781 9.36512 6.45586 9.52645 6.71016C9.3323 6.81816 9.01922 6.84551 8.95633 6.84687H3.78699C3.65164 6.84687 3.54227 6.95625 3.54227 7.0916C3.5368 7.54414 3.61336 7.99395 3.76785 8.41914C3.94559 8.88672 4.21082 9.22988 4.55535 9.44043C4.9409 9.67695 5.56844 9.8123 6.28074 9.8123C6.60203 9.81367 6.92332 9.78359 7.23914 9.7248C7.67801 9.64414 8.10047 9.49102 8.48875 9.2709C8.80867 9.08496 9.09715 8.8498 9.34188 8.57227C9.75066 8.10879 9.99539 7.59199 10.1772 7.13398H10.2497C10.6981 7.13398 10.9743 6.95488 11.1261 6.80449C11.2272 6.70879 11.3065 6.59258 11.3571 6.4627L11.3886 6.36836L11.3106 6.30957ZM4.26551 6.69785H4.95867C4.99148 6.69785 5.01883 6.67051 5.01883 6.6377V6.02109C5.01883 5.98828 4.99148 5.96094 4.95867 5.95957H4.26551C4.2327 5.95957 4.20535 5.98691 4.20535 6.01973V6.6377C4.20535 6.67188 4.2327 6.69785 4.26551 6.69785ZM5.22117 6.69785H5.91434C5.94715 6.69785 5.97449 6.67051 5.97449 6.6377V6.02109C5.97449 5.98828 5.94715 5.96094 5.91434 5.95957H5.22117C5.18699 5.95957 5.15965 5.98691 5.15965 6.02109V6.6377C5.15965 6.67188 5.18699 6.69785 5.22117 6.69785ZM6.18914 6.69922H6.8823C6.91512 6.69922 6.94246 6.67188 6.94246 6.63906V6.02246C6.94246 5.98965 6.91512 5.9623 6.8823 5.96094H6.18914C6.15633 5.96094 6.12898 5.98828 6.12898 6.02109V6.63906C6.12898 6.67188 6.15633 6.69785 6.18914 6.69922ZM7.14754 6.69922H7.8407C7.87352 6.69922 7.90086 6.67188 7.90223 6.63906V6.02246C7.90223 5.98828 7.87488 5.96094 7.8407 5.96094H7.14754C7.11473 5.96094 7.08738 5.98828 7.08738 6.02109V6.63906C7.08738 6.67188 7.11336 6.69922 7.14754 6.69922ZM5.2198 5.81055H5.91297C5.94578 5.81055 5.97312 5.7832 5.97312 5.74902V5.13242C5.97312 5.09961 5.94578 5.07227 5.91297 5.07227H5.2198C5.18562 5.07227 5.15965 5.09961 5.15828 5.13242V5.74902C5.15965 5.7832 5.18699 5.81055 5.2198 5.81055ZM6.18914 5.81055H6.8823C6.91512 5.81055 6.94246 5.7832 6.94246 5.74902V5.13242C6.94246 5.09961 6.91512 5.07227 6.8823 5.07227H6.18914C6.15633 5.07227 6.12898 5.09961 6.12898 5.13242V5.74902C6.12898 5.7832 6.15633 5.81055 6.18914 5.81055ZM7.14754 5.81055H7.8407C7.87488 5.81055 7.90086 5.7832 7.90223 5.74902V5.13242C7.90223 5.09824 7.87488 5.07227 7.8407 5.07227H7.14754C7.11473 5.07227 7.08738 5.09961 7.08738 5.13242V5.74902C7.08738 5.7832 7.11336 5.81055 7.14754 5.81055ZM7.14754 4.92324H7.8407C7.87488 4.92324 7.90223 4.8959 7.90223 4.86172V4.24375C7.90223 4.21094 7.87488 4.18359 7.8407 4.18359H7.14754C7.11473 4.18359 7.08738 4.21094 7.08738 4.24375V4.86172C7.08738 4.8959 7.11336 4.92324 7.14754 4.92324ZM8.11277 6.69922H8.80594C8.83875 6.69922 8.86609 6.67188 8.86609 6.63906V6.02246C8.86609 5.98828 8.83875 5.9623 8.80594 5.96094H8.11277C8.07996 5.96094 8.05262 5.98828 8.05262 6.02109V6.63906C8.05262 6.67188 8.07996 6.69922 8.11277 6.69922Z" fill="white"/>
</g>
<defs>
<clipPath id="clip0_415_64">
<rect width="14" height="14" fill="white"/>
</clipPath>
</defs>
</svg>
