<svg width="14" height="14" viewBox="0 0 14 14" fill="none" xmlns="http://www.w3.org/2000/svg">
<path d="M12.7753 3.11368C12.6952 2.84868 12.5031 2.63338 12.263 2.50088L7.38002 0.0828105C7.25195 0.0165621 7.10786 0 6.97978 0C6.85171 0 6.70762 0 6.57954 0.0331242L1.69661 2.46775C1.45646 2.58369 1.28036 2.799 1.21632 3.08055L0.0155991 8.52949C-0.0324297 8.81104 0.0316087 9.0926 0.191705 9.32447L3.56973 13.6472C3.76185 13.8459 4.03401 13.9784 4.30618 13.995H9.68541C9.97358 14.0281 10.2457 13.8956 10.4218 13.6472L13.7999 9.32447C13.96 9.0926 14.024 8.81104 13.992 8.52949L12.7753 3.11368Z" fill="#326DE6"/>
<path d="M12.023 8.31278C12.0069 8.31278 11.9909 8.31278 11.9909 8.29622C11.9909 8.27966 11.9589 8.27966 11.9269 8.27966C11.8629 8.2631 11.7988 8.2631 11.7348 8.2631C11.7028 8.2631 11.6707 8.2631 11.6387 8.24654H11.6227C11.4466 8.22997 11.2545 8.19685 11.0784 8.14716C11.0304 8.1306 10.9823 8.08091 10.9663 8.03123L10.8382 7.9981C10.9023 7.5178 10.8703 7.02094 10.7742 6.54064C10.6621 6.06034 10.47 5.5966 10.2139 5.18255L10.3099 5.08317V5.06661C10.3099 5.01692 10.3259 4.95068 10.358 4.91755C10.502 4.78506 10.6461 4.68568 10.8062 4.58631C10.8382 4.56975 10.8703 4.55319 10.9023 4.53662C10.9663 4.5035 11.0144 4.47037 11.0784 4.43725C11.0944 4.42069 11.1104 4.42069 11.1264 4.40413C11.1424 4.38756 11.1264 4.38756 11.1264 4.371C11.2705 4.25507 11.3025 4.05632 11.1905 3.90726C11.1424 3.84101 11.0464 3.79133 10.9663 3.79133C10.8863 3.79133 10.8062 3.82445 10.7422 3.87414L10.7262 3.8907C10.7102 3.90726 10.6942 3.92383 10.6781 3.92383C10.6301 3.97351 10.5821 4.0232 10.5501 4.07288C10.5341 4.10601 10.502 4.12257 10.486 4.13913C10.374 4.27163 10.2299 4.40413 10.0858 4.5035C10.0538 4.52006 10.0218 4.53662 9.98974 4.53662C9.97373 4.53662 9.94171 4.53662 9.9257 4.52006H9.90969L9.78161 4.60287C9.65353 4.47037 9.50945 4.33788 9.38137 4.20538C8.78901 3.72508 8.05257 3.42696 7.30012 3.34415L7.28411 3.21165V3.22822C7.23608 3.19509 7.22007 3.14541 7.20406 3.09572C7.20406 2.91354 7.20406 2.73135 7.23608 2.53261V2.51605C7.23608 2.48292 7.25209 2.4498 7.25209 2.41667C7.2681 2.35043 7.2681 2.28418 7.28411 2.21793V2.11856C7.30012 1.95293 7.17204 1.78731 7.01195 1.77075C6.91589 1.75419 6.81983 1.80388 6.73978 1.88669C6.67575 1.95293 6.64373 2.03575 6.64373 2.11856V2.20137C6.64373 2.26761 6.65974 2.33386 6.67575 2.40011C6.69176 2.43324 6.69175 2.46636 6.69175 2.49948V2.51605C6.72377 2.69823 6.72377 2.88041 6.72377 3.07916C6.70776 3.12884 6.69175 3.17853 6.64373 3.21165V3.24478L6.62772 3.37728C6.45161 3.39384 6.2755 3.42696 6.08339 3.46009C5.33094 3.62571 4.64252 4.03976 4.11421 4.61943L4.01815 4.55319H4.00214C3.98613 4.55319 3.97012 4.56975 3.9381 4.56975C3.90608 4.56975 3.87406 4.55319 3.84204 4.53662C3.69796 4.42069 3.55387 4.28819 3.4418 4.1557C3.42579 4.12257 3.39377 4.10601 3.37776 4.08945C3.32974 4.03976 3.29772 3.99007 3.24969 3.94039C3.23368 3.92383 3.21767 3.92383 3.20166 3.90726C3.18565 3.8907 3.18565 3.8907 3.18565 3.8907C3.12161 3.84101 3.04156 3.80789 2.96151 3.80789C2.86546 3.80789 2.78541 3.84102 2.73738 3.92383C2.64132 4.07288 2.67334 4.27163 2.80142 4.38756C2.81743 4.38756 2.81743 4.40413 2.81743 4.40413C2.81743 4.40413 2.84945 4.43725 2.86546 4.43725C2.91349 4.47037 2.97752 4.5035 3.04156 4.53662C3.07358 4.55319 3.1056 4.56975 3.13762 4.58631C3.29772 4.68568 3.45781 4.78506 3.58589 4.91755C3.61791 4.95068 3.64993 5.01692 3.63392 5.06661V5.05005L3.72998 5.14942C3.71397 5.18255 3.69796 5.19911 3.68195 5.23223C3.18565 6.04378 2.97752 7.00438 3.12161 7.94842L2.99353 7.98154C2.99353 7.9981 2.97752 7.9981 2.97752 7.9981C2.96151 8.04779 2.91349 8.08091 2.86546 8.11404C2.68935 8.16373 2.51324 8.19685 2.32113 8.21341C2.28911 8.21341 2.25709 8.21341 2.22507 8.22997C2.16103 8.22997 2.09699 8.24654 2.03296 8.24654C2.01695 8.24654 2.00094 8.2631 1.96892 8.2631C1.95291 8.2631 1.95291 8.2631 1.9369 8.27966C1.76079 8.31278 1.64873 8.47841 1.68074 8.66059C1.71276 8.80965 1.85685 8.90902 2.00094 8.89246C2.03296 8.89246 2.04897 8.89246 2.08099 8.8759C2.09699 8.8759 2.09699 8.8759 2.09699 8.85933C2.09699 8.84277 2.14502 8.85933 2.16103 8.85933C2.22507 8.84277 2.28911 8.80965 2.33714 8.79308C2.36916 8.77652 2.40118 8.75996 2.4332 8.75996H2.44921C2.62531 8.69371 2.78541 8.64403 2.97752 8.6109H2.99353C3.04156 8.6109 3.08959 8.62746 3.12161 8.66059C3.13762 8.66059 3.13762 8.67715 3.13762 8.67715L3.28171 8.66059C3.52185 9.42245 3.97012 10.1015 4.59449 10.5984C4.73858 10.7143 4.86666 10.8137 5.02675 10.8965L4.94671 11.0124C4.94671 11.029 4.96272 11.029 4.96272 11.029C4.99474 11.0787 4.99474 11.1449 4.97873 11.1946C4.91469 11.3602 4.81863 11.5258 4.72257 11.6749V11.6915C4.70656 11.7246 4.69055 11.7411 4.65853 11.7743C4.62651 11.8074 4.5945 11.8736 4.54647 11.9399C4.53046 11.9564 4.53046 11.973 4.51445 11.9896C4.51445 11.9896 4.51445 12.0061 4.49844 12.0061C4.41839 12.1718 4.48243 12.3705 4.62651 12.4533C4.65853 12.4699 4.70656 12.4864 4.73858 12.4864C4.86666 12.4864 4.97873 12.4036 5.04276 12.2877C5.04276 12.2877 5.04276 12.2711 5.05877 12.2711C5.05877 12.2546 5.07478 12.238 5.09079 12.2214C5.1068 12.1552 5.13882 12.1055 5.15483 12.0393L5.18685 11.9399C5.23488 11.7577 5.31493 11.5921 5.39498 11.4265C5.427 11.3768 5.47502 11.3436 5.52305 11.3271C5.53906 11.3271 5.53906 11.3271 5.53906 11.3105L5.6031 11.178C6.05137 11.3602 6.51565 11.443 6.99594 11.443C7.28411 11.443 7.57228 11.4099 7.86046 11.3271C8.03656 11.294 8.21267 11.2277 8.37276 11.178L8.4368 11.294C8.45281 11.294 8.45281 11.294 8.45281 11.3105C8.50084 11.3271 8.54887 11.3602 8.58089 11.4099C8.66094 11.5755 8.74099 11.7411 8.78901 11.9233V11.9399L8.82103 12.0393C8.83704 12.1055 8.85305 12.1718 8.88507 12.2214C8.90108 12.238 8.90108 12.2546 8.91709 12.2711C8.91709 12.2711 8.91709 12.2877 8.9331 12.2877C8.99714 12.4036 9.10921 12.4864 9.23728 12.4864C9.28531 12.4864 9.31733 12.4699 9.36536 12.4533C9.4294 12.4202 9.49344 12.3539 9.50945 12.2711C9.52546 12.1883 9.52546 12.1055 9.49344 12.0227C9.49344 12.0061 9.47743 12.0061 9.47743 12.0061C9.47743 11.9896 9.46142 11.973 9.44541 11.9564C9.41339 11.8902 9.38137 11.8405 9.33334 11.7908C9.31733 11.7577 9.30132 11.7411 9.2693 11.708V11.6749C9.15724 11.5258 9.07719 11.3602 9.01315 11.1946C8.99714 11.1449 8.99714 11.0787 9.02916 11.029C9.02916 11.0124 9.04517 11.0124 9.04517 11.0124L8.99714 10.8799C9.81363 10.3665 10.438 9.5715 10.7262 8.62746L10.8543 8.64403C10.8703 8.64403 10.8703 8.62746 10.8703 8.62746C10.9023 8.59434 10.9503 8.57778 10.9983 8.57778H11.0144C11.1905 8.6109 11.3666 8.66059 11.5267 8.72684H11.5427C11.5747 8.7434 11.6067 8.75996 11.6387 8.75996C11.7028 8.79309 11.7508 8.82621 11.8148 8.84277C11.8308 8.84277 11.8469 8.85933 11.8789 8.85933C11.8949 8.85933 11.8949 8.85933 11.9109 8.8759C11.9429 8.89246 11.9589 8.89246 11.9909 8.89246C12.135 8.89246 12.2631 8.79309 12.3111 8.66059C12.2951 8.47841 12.167 8.34591 12.023 8.31278ZM7.39618 7.79936L6.96392 8.01467L6.53166 7.79936L6.41959 7.31906L6.72377 6.92157H7.20406L7.50825 7.31906L7.39618 7.79936ZM10.0057 6.72282C10.0858 7.07063 10.1018 7.41843 10.0698 7.76623L8.54887 7.31906C8.40478 7.28593 8.32474 7.13687 8.35676 6.98782C8.37276 6.93813 8.38877 6.905 8.42079 6.87188L9.62151 5.74566C9.79762 6.04378 9.9257 6.37502 10.0057 6.72282ZM9.14123 5.13286L7.82844 6.09346C7.71637 6.15971 7.55627 6.14315 7.47623 6.02721C7.44421 5.99409 7.4282 5.96096 7.4282 5.91128L7.33214 4.23851C8.03656 4.32132 8.66094 4.636 9.14123 5.13286ZM6.24349 4.28819L6.56368 4.22194L6.48363 5.87815C6.48363 6.02721 6.35555 6.14315 6.21147 6.14315C6.16344 6.14315 6.13142 6.12659 6.08339 6.11002L4.75459 5.13286C5.17084 4.71881 5.68315 4.42069 6.24349 4.28819ZM4.29031 5.74566L5.47502 6.83876C5.58709 6.93813 5.6031 7.10375 5.50704 7.21968C5.47502 7.26937 5.443 7.28593 5.37897 7.3025L3.82603 7.76623C3.778 7.07063 3.9381 6.35846 4.29031 5.74566ZM4.01815 8.54465L5.6031 8.2631C5.73118 8.2631 5.85926 8.34591 5.87526 8.47841C5.89127 8.52809 5.89127 8.59434 5.85925 8.64403L5.25089 10.1677C4.69055 9.78681 4.24228 9.20714 4.01815 8.54465ZM7.65233 10.5984C7.4282 10.648 7.20406 10.6812 6.96392 10.6812C6.62772 10.6812 6.27551 10.6149 5.95531 10.5155L6.73978 9.04152C6.81983 8.94214 6.94791 8.90902 7.05998 8.97527C7.108 9.00839 7.14002 9.04152 7.18805 9.0912L7.95651 10.5321C7.86046 10.5487 7.7644 10.5652 7.65233 10.5984ZM9.60551 9.15745C9.36536 9.55494 9.02916 9.90275 8.64493 10.1512L8.02055 8.59434C7.98853 8.46184 8.05257 8.32935 8.16464 8.27966C8.21267 8.2631 8.2607 8.24654 8.30873 8.24654L9.90969 8.52809C9.82964 8.75996 9.73358 8.97527 9.60551 9.15745Z" fill="white"/>
</svg>
