<svg width="16" height="21" viewBox="0 0 30 35" fill="none" xmlns="http://www.w3.org/2000/svg">
<path d="M20.3571 8.57143C20.3571 7.15063 19.7927 5.78802 18.7881 4.78336C17.7834 3.7787 16.4208 3.21429 15 3.21429C13.5792 3.21429 12.2166 3.7787 11.2119 4.78336C10.2073 5.78802 9.64286 7.15063 9.64286 8.57143C9.64286 9.99223 10.2073 11.3548 11.2119 12.3595C12.2166 13.3642 13.5792 13.9286 15 13.9286C16.4208 13.9286 17.7834 13.3642 18.7881 12.3595C19.7927 11.3548 20.3571 9.99223 20.3571 8.57143ZM6.42857 8.57143C6.42857 6.29814 7.33163 4.11797 8.93908 2.51051C10.5465 0.903059 12.7267 0 15 0C17.2733 0 19.4535 0.903059 21.0609 2.51051C22.6684 4.11797 23.5714 6.29814 23.5714 8.57143C23.5714 10.8447 22.6684 13.0249 21.0609 14.6323C19.4535 16.2398 17.2733 17.1429 15 17.1429C12.7267 17.1429 10.5465 16.2398 8.93908 14.6323C7.33163 13.0249 6.42857 10.8447 6.42857 8.57143ZM3.30134 31.0714H26.6987C26.1027 26.8326 22.4598 23.5714 18.0603 23.5714H11.9397C7.54018 23.5714 3.89732 26.8326 3.30134 31.0714ZM0 32.2969C0 25.7009 5.34375 20.3571 11.9397 20.3571H18.0603C24.6563 20.3571 30 25.7009 30 32.2969C30 33.3951 29.1094 34.2857 28.0112 34.2857H1.98884C0.890625 34.2857 0 33.3951 0 32.2969Z" fill="white"/>
</svg>
